<?xml version="1.0" standalone="no"?><!DOCTYPE svg PUBLIC "-//W3C//DTD SVG 1.1//EN" "http://www.w3.org/Graphics/SVG/1.1/DTD/svg11.dtd"><svg t="1528871023201" class="icon" style="" viewBox="0 0 1024 1024" version="1.1" xmlns="http://www.w3.org/2000/svg" p-id="22279" xmlns:xlink="http://www.w3.org/1999/xlink" width="200" height="200"><defs><style type="text/css"></style></defs><path d="M808.117 436.706H342.212l0.105-178.568c0-94.96 67.087-170.556 158.088-170.556 91.979 0 157.154 72.343 157.154 169.879v88.019c0 23.657 20.193 43.64 44.468 43.64 16.987 0 37.226-12.168 46.758-33.4 0 0 3.539-8.584 3.539-11.822l0.015-86.934C752.354 113.092 643.644 0 504.727 0c-138.421 0-248.41 112.745-250.414 253.59-0.316 6.16-0.572 122.88-0.692 183.116h-60.627c-44.815 0-77.553 31.488-77.553 76.303v427.957c0 44.815 32.738 83.019 77.553 83.019h615.108c44.815 0 90.398-38.204 90.398-83.02V513.01c0.015-44.815-45.568-76.303-90.383-76.303zM567.357 757.73c-4.895 3.012-0.136 8.854-0.136 8.854v26.73c0 18.929-20.917 34.906-40.027 34.906h-26.699c-18.854 0-23.627-15.36-23.627-34.906v-29.109s-2.71-4.894-6.476-8.493c-19.049-16.58-30.343-35.75-30.343-55.853 0-40.087 34.936-73.954 77.04-73.954 40.359 0 75.16 33.175 75.16 73.954-0.016 21.594-0.302 43.655-24.893 57.87z" fill="" p-id="22280"></path></svg>