<?xml version="1.0" standalone="no"?><!DOCTYPE svg PUBLIC "-//W3C//DTD SVG 1.1//EN" "http://www.w3.org/Graphics/SVG/1.1/DTD/svg11.dtd"><svg t="1528870834541" class="icon" style="" viewBox="0 0 1024 1024" version="1.1" xmlns="http://www.w3.org/2000/svg" p-id="21456" xmlns:xlink="http://www.w3.org/1999/xlink" width="200" height="200"><defs><style type="text/css"></style></defs><path d="M501.750053 539.241434c150.84352 0 273.627984-120.295783 273.627984-268.158413 0-147.863652-122.783441-268.157389-273.627984-268.157389-150.875243 0-273.625938 120.293737-273.625938 268.157389C228.125139 418.946674 350.874811 539.241434 501.750053 539.241434L501.750053 539.241434 501.750053 539.241434zM396.844795 588.353992c-190.559057 0-332.823178 128.48121-332.823178 315.078025l0 20.069081c0 97.573269 152.479787 97.573269 345.462033 97.573269l204.997907 0c185.41899 0 345.495802 0 345.495802-97.573269l0-20.069081c0-186.565093-142.265144-315.078025-332.791455-315.078025L396.844795 588.353992 396.844795 588.353992 396.844795 588.353992z" p-id="21457"></path></svg>