<?xml version="1.0" standalone="no"?><!DOCTYPE svg PUBLIC "-//W3C//DTD SVG 1.1//EN" "http://www.w3.org/Graphics/SVG/1.1/DTD/svg11.dtd"><svg t="1528871274905" class="icon" style="" viewBox="0 0 1025 1024" version="1.1" xmlns="http://www.w3.org/2000/svg" p-id="26527" xmlns:xlink="http://www.w3.org/1999/xlink" width="200.1953125" height="200"><defs><style type="text/css"></style></defs><path d="M793.608448 305.3141 256.831481 305.3141c-4.323599 0-7.84018 3.51759-7.84018 7.841189l0 357.407116c0 4.323599 3.51759 7.84018 7.841189 7.84018l80.606982 0c2.774125 0 5.083205 2.256624 5.145749 5.030749l1.747194 78.063866 74.665311-81.426105c0.972457-1.06022 2.354475-1.66851 3.793994-1.66851l370.817738 0c4.323599 0 7.84018-3.516581 7.84018-7.839172L801.449638 313.155289C801.448629 308.83169 797.932048 305.3141 793.608448 305.3141zM298.814578 480.155572c0-2.837677 2.30908-5.146758 5.146758-5.146758l314.200377 0c2.837677 0 5.147766 2.30908 5.147766 5.146758l0 18.301152c0 2.837677-2.30908 5.146758-5.147766 5.146758L303.961336 503.603481c-2.837677 0-5.146758-2.30908-5.146758-5.146758L298.814578 480.155572zM756.466451 598.525955c0 2.837677-2.30908 5.147766-5.147766 5.147766L303.961336 603.673721c-2.837677 0-5.146758-2.30908-5.146758-5.147766L298.814578 580.225811c0-2.837677 2.30908-5.147766 5.146758-5.147766l447.358358 0c2.837677 0 5.147766 2.30908 5.147766 5.147766L756.46746 598.525955zM756.466451 398.385475c0 2.837677-2.30908 5.147766-5.147766 5.147766L303.961336 403.533242c-2.837677 0-5.146758-2.30908-5.146758-5.147766L298.814578 380.085332c0-2.837677 2.30908-5.146758 5.146758-5.146758l447.358358 0c2.837677 0 5.147766 2.30908 5.147766 5.146758L756.46746 398.385475z" p-id="26528"></path><path d="M504.707079 16.476283c-278.561451 0-504.380236 225.818785-504.380236 504.380236s225.818785 504.380236 504.380236 504.380236 504.380236-225.818785 504.380236-504.380236S783.26853 16.476283 504.707079 16.476283zM830.043296 670.563413c0 20.089706-16.345142 36.434848-36.434848 36.434848l-360.505056 0-99.423617 108.425903c-1.903554 2.075045-4.442634 3.175616-7.088645 3.175616-1.161097 0-2.343379-0.211842-3.50145-0.647632-3.792985-1.427413-6.20496-4.831012-6.29575-8.882243l-2.28487-102.073662-57.67859 0c-20.091723 0-36.435857-16.345142-36.435857-36.435857L220.394615 313.155289c0-20.090715 16.345142-36.435857 36.435857-36.435857l536.776968 0c20.089706 0 36.434848 16.345142 36.434848 36.434848L830.042288 670.563413z" p-id="26529"></path></svg>