<?xml version="1.0" standalone="no"?><!DOCTYPE svg PUBLIC "-//W3C//DTD SVG 1.1//EN" "http://www.w3.org/Graphics/SVG/1.1/DTD/svg11.dtd"><svg t="1528868832047" class="icon" style="" viewBox="0 0 1174 1024" version="1.1" xmlns="http://www.w3.org/2000/svg" p-id="15001" xmlns:xlink="http://www.w3.org/1999/xlink" width="229.296875" height="200"><defs><style type="text/css"></style></defs><path d="M554.978102 826.549878c0-90.316302 42.978102-170.666667 110.248175-221.119221-5.605839-11.83455-8.720195-24.914842-8.720194-38.618005 0-31.766423 24.914842-58.549878 42.978102-76.613139C742.462287 438.501217 766.754258 368.739659 766.754258 292.126521 766.754258 130.180049 652.145985 0 510.754258 0S254.131387 130.180049 254.131387 292.126521c0 76.613139 26.783455 146.374696 67.270073 198.072992 24.914842 15.571776 42.978102 44.846715 42.978102 76.613139 0 29.274939-13.703163 56.058394-36.126521 72.253041v2.491485c-2.491484 0-4.360097 2.491484-6.851581 2.491484-13.703163 8.720195-29.274939 13.703163-47.3382 13.703163-110.248175 36.126521-202.43309 94.676399-256.622871 168.798053h2.491484c-13.703163 19.931873-19.931873 42.978102-19.931873 67.270073 0 69.761557 58.549878 125.819951 130.180049 128.311436h504.525547c-49.206813-51.075426-79.727494-119.591241-79.727494-195.581509z" fill="" p-id="15002"></path><path d="M832.155718 632.836983c-107.13382 0-193.712895 86.579075-193.712896 193.712895s86.579075 193.712895 193.712896 193.712896 193.712895-86.579075 193.712895-193.712896-86.579075-193.712895-193.712895-193.712895z m106.510949 206.170316h-80.973236v80.973236h-51.075426v-80.973236h-80.973236v-51.075426h80.973236v-80.973236h51.075426v80.973236h80.973236v51.075426z" fill="" p-id="15003"></path></svg>