<?xml version="1.0" standalone="no"?><!DOCTYPE svg PUBLIC "-//W3C//DTD SVG 1.1//EN" "http://www.w3.org/Graphics/SVG/1.1/DTD/svg11.dtd"><svg t="1528860454506" class="icon" style="" viewBox="0 0 1024 1024" version="1.1" xmlns="http://www.w3.org/2000/svg" p-id="538" xmlns:xlink="http://www.w3.org/1999/xlink" width="200" height="200"><defs><style type="text/css"></style></defs><path d="M864 787.2h-704c-51.2 0-96-44.8-96-96V224C64 172.8 108.8 128 160 128h704c51.2 0 96 44.8 96 96v467.2c0 57.6-44.8 96-96 96zM160 192c-19.2 0-32 12.8-32 32v467.2c0 19.2 12.8 32 32 32h704c19.2 0 32-12.8 32-32V224c0-19.2-12.8-32-32-32h-704zM928 896h-832c-19.2 0-32-12.8-32-32s12.8-32 32-32h832c19.2 0 32 12.8 32 32s-12.8 32-32 32z" p-id="539"></path><path d="M204.8 403.2c-19.2 0-32-12.8-32-32V275.2c0-19.2 12.8-32 32-32h102.4c12.8 0 32 12.8 32 32s-19.2 32-32 32H236.8v70.4c0 12.8-12.8 25.6-32 25.6zM307.2 678.4H204.8c-19.2 0-32-12.8-32-32V544c0-12.8 12.8-32 32-32s32 12.8 32 32v70.4h70.4c19.2 0 32 12.8 32 32s-19.2 32-32 32z" p-id="540"></path><path d="M819.2 403.2c-19.2 0-32-12.8-32-32v-64h-70.4c-19.2 0-32-12.8-32-32s12.8-32 32-32h102.4c19.2 0 32 12.8 32 32v102.4c0 12.8-12.8 25.6-32 25.6zM819.2 678.4h-102.4c-19.2 0-32-12.8-32-32s12.8-32 32-32h70.4V544c0-19.2 12.8-32 32-32s32 12.8 32 32v102.4c0 19.2-12.8 32-32 32z" p-id="541"></path></svg>