<?xml version="1.0" standalone="no"?><!DOCTYPE svg PUBLIC "-//W3C//DTD SVG 1.1//EN" "http://www.w3.org/Graphics/SVG/1.1/DTD/svg11.dtd"><svg t="1528958473777" class="icon" style="" viewBox="0 0 1024 1024" version="1.1" xmlns="http://www.w3.org/2000/svg" p-id="2758" xmlns:xlink="http://www.w3.org/1999/xlink" width="200" height="200"><defs><style type="text/css"></style></defs><path d="M862.914877 136.397825c-59.451872-10.239887-120.701483-1.908404-180.144321 3.954575-59.223767 5.842653-121.062838 12.992958-179.740056-0.896611-69.091007-16.353556-112.799109-61.642584-145.029684-123.005119-8.887066 24.043634-17.771873 48.08501-26.65668 72.130903-58.132928 157.293157-116.263597 314.586315-174.394266 471.879472L0 985.149859l60.612724 22.401729 141.246753-382.193509c26.214021 27.966591 58.577845 48.274721 100.124595 58.108084 58.672701 13.880535 120.518547 6.743781 179.737797 0.89887 59.438321-5.874271 120.694708-14.198979 180.14658-3.956833 76.394888 13.157826 125.755931 58.914357 161.080606 126.182781 67.02451-181.334533 134.035469-362.671325 201.050946-544.010375C988.66855 195.309924 939.321057 149.560168 862.914877 136.397825zM870.365558 459.256903c-29.888546-25.224812-61.974579-42.093298-100.659852-49.530429-12.907136 34.911375-25.809755 69.82275-38.712374 104.734125 38.689789 7.441647 70.769048 24.310133 100.664369 49.532687-11.832106 32.016021-23.66647 64.0343-35.496318 96.043546-29.888546-25.222554-61.979096-42.102332-100.666627-49.52817 11.832106-32.018279 23.66647-64.0343 35.498576-96.048063-39.392173-6.353066-77.856115-6.316931-117.602867-3.884562-11.829847 32.016021-23.66647 64.0343-35.496318 96.048063-41.126675 3.322204-82.113325 8.040141-123.237741 11.35557 11.829847-32.020538 23.664212-64.0343 35.494059-96.043546-39.746752 2.434627-78.212953 2.475279-117.605126-3.882304-11.832106 32.016021-23.664212 64.032042-35.496318 96.043546-38.683014-7.430355-70.782598-24.307875-100.664369-49.534946 11.829847-32.011504 23.664212-64.029784 35.494059-96.041288 29.893062 25.227071 61.976837 42.097815 100.666627 49.532687 12.900361-34.911375 25.807497-69.827267 38.707857-104.738642-38.687531-7.419062-70.775823-24.31465-100.666627-49.52817 12.904878-34.915892 25.807497-69.831784 38.710116-104.743159 29.893062 25.233846 61.976837 42.086523 100.664369 49.534946 11.832106-32.016021 23.664212-64.029784 35.496318-96.041288 39.392173 6.353066 77.862891 6.316931 117.605126 3.877787-11.829847 32.013763-23.664212 64.029784-35.496318 96.043546 41.124416-3.322204 82.111066-8.035624 123.237741-11.35557 11.829847-32.013763 23.66647-64.029784 35.496318-96.045805 39.751269-2.434627 78.208436-2.473021 117.602867 3.882304-11.832106 32.016021-23.664212 64.029784-35.496318 96.048063 38.689789 7.439389 70.769048 24.303358 100.666627 49.52817C896.173055 389.429636 883.274953 424.345528 870.365558 459.256903z" p-id="2759"></path><path d="M528.858323 417.197481c-12.902619 34.913634-25.805238 69.825009-38.710116 104.738642 41.126675-3.324463 82.115583-8.040141 123.24-11.360086 12.902619-34.909117 25.805238-69.82275 38.707857-104.734125C610.967131 409.164116 569.982739 413.879794 528.858323 417.197481z" p-id="2760"></path><path d="M528.858323 417.197481c12.904878-34.911375 25.807497-69.827267 38.710116-104.736384-39.758044 2.427851-78.208436 2.468504-117.609643-3.880045-12.902619 34.911375-25.805238 69.825009-38.707857 104.736384C450.64537 419.677277 489.107054 419.638884 528.858323 417.197481z" p-id="2761"></path><path d="M690.803921 301.105528c-12.902619 34.911375-25.805238 69.82275-38.707857 104.736384 39.751269-2.427851 78.208436-2.468504 117.605126 3.884562 12.900361-34.911375 25.805238-69.825009 38.705599-104.736384C769.014616 298.634766 730.55519 298.666384 690.803921 301.105528z" p-id="2762"></path></svg>