<?xml version="1.0" standalone="no"?><!DOCTYPE svg PUBLIC "-//W3C//DTD SVG 1.1//EN" "http://www.w3.org/Graphics/SVG/1.1/DTD/svg11.dtd"><svg t="1528958580523" class="icon" style="" viewBox="0 0 1024 1024" version="1.1" xmlns="http://www.w3.org/2000/svg" p-id="2889" xmlns:xlink="http://www.w3.org/1999/xlink" width="200" height="200"><defs><style type="text/css"></style></defs><path d="M453.4 423.5s-1.6-25.1-25.7-29.8c0 0 0-25.1 11.3-25.1s-38.6-29.8-59.5-29.8 3.2-31.4 16.1-31.4c12.9 0-40.2-36.1-61.1-34.5-20.9 1.6-1.6-26.7 11.3-29.8 12.9-3.1-56.3-34.5-67.5-33-0.2-0.2 33.5 221.2 175.1 213.4z m487.2 354.9c-28.9-7.9-53.1 3.1-54.7-18.8-1.6-22-64.3-117.8-80.4-125.6-16.1-7.8-25.7-87.9-54.7-141.3-29-53.4-131.9-39.3-297.5-44-165.6-4.7-207.5-273.3-207.5-273.3-1.2-6.6-11.3-8.4-11.3-8.4-13.4 3.7-12.9 39.3-15 42.9-1.4 2.4-18.8 13.9-30.6 21.5-53.9 18.6-81.8 44.3-96.2 66.4-27.6 27.7-34.5 92 0.2 99.1 38.6 7.8 69.2-37.7 69.2-37.7 27.3 6.3 64.3-12.6 64.3-12.6 40.2 7.9 38.6 142.9 38.6 142.9-12.9 20.4-46.6 149.2-46.6 149.2-35.2 25.1-130.1 111.4-138.1 122.4s-32.2 44 0 58.1c63.2 27.8 98.1-72.2 96.5-80.1-1.6-7.9 27.3-9.4 27.3-9.4 80.4-9.4 148-97.4 148-97.4 69.1 53.4 260.5 6.3 260.5 6.3 91.7 64.4 189.8 73.8 189.8 73.8 20.9 66 115.8 147.6 138.3 144.5 22.4-3.1 28.9-70.6-0.1-78.5z m-729-492.1c-8.9 10.2-27.3-4.8-34.2-12.9 3.2-6.1 7.3-10.3 11.5-13.2 1.3 0.1 2.8 0.3 4.5 0.5 19.3 2.6 27.3 15.2 18.2 25.6zM865 491c5.4 5.2 20.4 25.1 46.1 30.4 25.7 5.2 24.7-35.6 4.3-42.9-20.4-7.3-7.5-35.6-15-44.3-7.5-8.7-56.8 9.8-65.4-2.8-8.6-12.6-5.4-23-28.9-7.6-23.6 15.4-67.5 28.6-67.5 28.6-4.3 53.3 121.1 33.4 126.4 38.6z" p-id="2890"></path></svg>