<?xml version="1.0" standalone="no"?><!DOCTYPE svg PUBLIC "-//W3C//DTD SVG 1.1//EN" "http://www.w3.org/Graphics/SVG/1.1/DTD/svg11.dtd"><svg t="1528869785833" class="icon" style="" viewBox="0 0 1024 1024" version="1.1" xmlns="http://www.w3.org/2000/svg" p-id="17985" xmlns:xlink="http://www.w3.org/1999/xlink" width="200" height="200"><defs><style type="text/css"></style></defs><path d="M633.826967 0H389.90186c-29.928337 0-53.841741 26.041859-53.841741 58.228611 0 32.256336 23.970708 58.370849 53.841741 58.370849h245.425259c28.412836 0 52.370241-26.11349 52.370241-58.370849 0.016373-32.184705-23.928753-58.228611-53.870393-58.228611z m141.482948 58.513087c0 75.841581-13.928081 117.027197-87.770142 117.027197H336.458181c-73.513583 0-87.770142-54.214221-87.770142-117.027197H131.659818c-49.285004 0-87.770142 36.071183-87.770142 87.771165v789.933326c0 57.999392 31.571751 87.771165 87.770142 87.771166h760.677294c46.885375 0 87.771165-28.585773 87.771166-87.771166v-789.933326c0-57.099915-32.68612-87.771165-87.771166-87.771165H775.309915zM746.625905 789.818717H283.202788c-17.071647 0-34.114641-17.52906-34.114641-31.827575 0-14.257583 14.428473-26.47062 31.513423-26.47062h462.079529c17.071647 0 31.501143 11.097645 32.799706 26.47062 0.001023 14.314887-11.783253 31.827575-28.8549 31.827575z m-6.142845-205.025535H276.289401c-17.114625 0-28.000448-15.358649-28.000448-29.67149 0-14.299538 14.457125-28.614425 31.557425-28.614425h462.866444c17.113602 0 31.569704 13.256799 32.85701 28.614425-0.001023 14.312841-18.017172 29.67149-35.086772 29.67149z m0-204.725708H276.289401c-17.114625 0-28.000448-15.355579-28.000448-29.656141 0-14.314887 14.457125-28.628751 31.557425-28.628751h462.866444c17.113602 0 31.569704 13.256799 32.85701 28.628751-0.001023 14.299538-18.017172 29.656141-35.086772 29.656141z" p-id="17986"></path></svg>